#!OML:ASF F:\VICON\USERDATA\INSTALL\rory3\rory3.ASF
:FULLY-SPECIFIED
:DEGREES
61
root -0.3751279082726095 18.314041391566963 36.49515468831141 -0.7689609776037247 1.0199838551932132 -4.98919901442967
lfemur -12.826461202775647 1.6185053505821014 -14.931872921669852
ltibia 84.35511362129543
lfoot 13.532799142400135 -13.079413372407096
ltoes -5.837780868799827
rfemur -17.096854505559154 4.323899786034138 32.512718241804684
rtibia 39.243640100048175
rfoot -5.212654917145779 -4.682045732611653
rtoes 13.097000456666256
lowerback 12.24503249947832 -0.23551441729592015 2.8531827112553496
upperback -0.03280509722249758 0.21190705539783994 3.3219540686133042
thorax -7.122851415577358 0.09136151581090113 1.6194374782002359
lowerneck -17.33781937467638 -2.7090420175654764 -2.475372686909376
upperneck 17.73916721448445 -3.6079934313649304 2.3871115587296394
head 8.47856747065221 -1.608176319071303 0.7626885752071616
lclavicle -1.932712021328519e-15 9.153938774788822e-16
lhumerus -34.823685421077805 -9.55855473161373 92.07589767944295
lradius 70.92859467318267
lwrist 18.60849046651067
lhand -25.68686678051825 11.678363590792088
lfingers 7.125019999999999
lthumb 0.8481606394854465 41.65993325578882
rclavicle -1.932712021328519e-15 9.153938774788822e-16
rhumerus -45.457773772450615 -9.352250076741296 -86.19201395695838
rradius 63.12125238987511
rwrist 0.4091131175008371
rhand -15.841162765268056 31.607494282216418
rfingers 7.125019999999999
rthumb 10.353604273183048 1.987098116254592
62
root -0.6896235477389453 18.528780100647367 37.0716917467398 2.021891746395884 1.5249363909200868 -5.073136344303267
lfemur -24.40437206140688 5.654022344065713 -15.435826811011395
ltibia 102.06153968351003
lfoot 10.102293496417083 -11.773388989761163
ltoes -11.417497399614787
rfemur -15.781680339058987 3.128054211637291 34.74903017506023
rtibia 48.64107702059141
rfoot -2.7692189259836777 -4.842970639382425
rtoes 15.034463662734536
lowerback 14.946997333412032 0.46808566646601646 3.6293527483265065
upperback -0.5995618808550321 1.3487465199262165 3.294452612200935
thorax -9.425341502325429 0.5933713740739192 0.627306776690596
lowerneck -18.644864667460464 -2.9646804037959686 -2.3663035609778755
upperneck 14.046439125934766 -4.139726454577401 3.406404325005595
head 7.571602678095523 -1.701701076449299 1.0021625910009615
lclavicle -1.2376638735807424e-15 2.1398895970228116e-15
lhumerus -46.98372071704162 -16.3016672073489 99.72023306880249
lradius 112.28487224204196
lwrist 33.228599213041065
lhand -24.94883458470264 0.6665218074640953
lfingers 7.12502
lthumb 1.5609585590269899 30.64939785104955
rclavicle -1.2376638735807424e-15 2.1398895970228116e-15
rhumerus -55.00036868260379 6.8025229772744495 -96.8670164591753
rradius 106.60117013495754
rwrist -9.554677354923783
rhand -15.341556811753142 39.49533623559283
rfingers 7.12502
rthumb 10.835677186195314 9.893115360043645
63
root -0.6967429040103915 18.367571555062884 36.68585358397344 2.3840515557926008 0.16560903164096963 -5.48287880403478
lfemur -31.51281831175711 6.789946849882445 -15.33195806400892
ltibia 95.66126966834065
lfoot 3.238941903424265 -8.710888407098517
ltoes -12.625578335240732
rfemur -11.656814473292014 3.224652185794115 35.453413944098415
rtibia 46.98980739004553
rfoot -6.531464129296765 -5.458278480118584
rtoes 13.752153188665185
lowerback 15.022499222608285 1.007880641491776 4.451363007504143
upperback -0.6589494012814671 2.21930884371216 2.9590977632204987
thorax -9.433684523422054 0.9490032328798583 -0.5839655071925217
lowerneck -18.984941528383402 -3.1230481024630303 -2.324320500305343
upperneck 13.659194967263577 -4.376005437932 3.351993422218537
head 7.518461114480536 -1.7993992937105712 0.9545147701241128
lclavicle -1.834202027259745e-15 1.7072008771022126e-15
lhumerus -51.36593047899543 -15.286524724003154 99.35671410598432
lradius 110.69533350110414
lwrist 33.67452247642584
lhand -25.380292789006507 0.19869115041672947
lfingers 7.12502
lthumb 1.144272853894055 30.18184288006647
rclavicle -1.834202027259745e-15 1.7072008771022126e-15
rhumerus -50.73985015039356 9.679190347409847 -98.69065682788239
rradius 109.15353213905342
rwrist -11.082518991643248
rhand -15.808089271799737 39.08211622525225
rfingers 7.12502
rthumb 10.385510069781754 9.508012342030954
64
root -0.6860232343354827 18.081378442512 36.50392092717466 3.1571206729155223 -1.1686930236894657 -5.993355501882201
lfemur -36.187927990710506 6.070644197466591 -14.463170425414047
ltibia 82.90773901930376
lfoot 0.7405148168612337 -5.85333053534166
ltoes -12.24385047978234
rfemur -7.358059847522483 3.401959198581615 36.36367601744443
rtibia 45.105098003211715
rfoot -9.824736762281283 -6.118935661895495
rtoes 12.860729413189322
lowerback 15.020937902662153 1.5019888281091505 5.413106575739492
upperback -0.7637991409849489 3.043620704458726 2.7990838380213656
thorax -9.416192508313765 1.283763631088834 -1.6613609712591826
lowerneck -19.576330527636937 -3.1833710740268883 -2.2450290656524694
upperneck 13.055155224841565 -4.470890248631652 3.257695391147325
head 7.423504167751378 -1.8284359390968685 0.8985555473491704
lclavicle -2.1570342161924768e-15 1.473040081861468e-15
lhumerus -54.961840351279896 -13.734223883667116 98.67539869447846
lradius 108.70822428595737
lwrist 33.872896373027245
lhand -25.908339450521623 -0.2878305208691392
lfingers 7.12502
lthumb 0.6343165831857018 29.69392473214461
rclavicle -2.1570342161924768e-15 1.473040081861468e-15
rhumerus -46.57399609048204 12.5452482650539 -100.0303453922828
rradius 111.83509887220107
rwrist -12.478450968052275
rhand -16.353909743547085 39.32024445145983
rfingers 7.12502
rthumb 9.858776507530466 9.750606193206547
65
root -0.6649845243840744 17.746003620033413 36.5649598102012 4.2319335262971745 -2.495930294940874 -6.570816043888399
lfemur -38.38642306780346 3.1956579690707256 -12.775976694704793
ltibia 65.55062316175287
lfoot 0.8640887149820424 -2.9504784144375575
ltoes -11.285819460790467
rfemur -2.1726175255786053 3.693752648236953 37.39869467991918
rtibia 42.55087234243446
rfoot -12.950773759568273 -6.610028030839187
rtoes 10.697306987098665
lowerback 14.749280915527487 1.9874335902131914 6.382306429590482
upperback -0.9086366653740933 3.8439515900086643 2.8011847324975814
thorax -9.320644818301126 1.6125120824524657 -2.502686713658522
lowerneck -20.264760134919854 -3.204276553588792 -2.120519140400212
upperneck 12.382372724600032 -4.524638040374996 3.1986292856082468
head 7.311061723947297 -1.8322902216632702 0.8520106629140732
lclavicle -2.157376349304662e-15 1.4727919181369768e-15
lhumerus -58.010466697150406 -11.509511796247661 97.739190687914
lradius 106.01535545967334
lwrist 33.58498154387641
lhand -26.329030980549806 -0.42977400903699325
lfingers 7.12502
lthumb 0.22804819406852506 29.549113767923984
rclavicle -2.157376349304662e-15 1.4727919181369768e-15
rhumerus -42.349331968019044 14.899114776460774 -100.81038527500326
rradius 114.23042171288094
rwrist -13.433515135087818
rhand -16.912841805040763 39.867674872246326
rfingers 7.12502
rthumb 9.3193713245068 10.28248682911055
66
root -0.6193833470779501 17.398760808233714 37.43092359729418 5.410270871572953 -3.6430210880052623 -6.960455292835347
lfemur -38.19885174551821 -0.7840935047123505 -10.698657626979854
ltibia 47.85800573696246
lfoot 1.8783399723163259 -0.08993285873938284
ltoes -10.090617119147973
rfemur 4.457154588232012 4.314628103244399 38.31161819578489
rtibia 40.83951881056106
rfoot -15.68725500548915 -6.699496680140725
rtoes 6.067031180122571
lowerback 14.234472666386392 2.5097695384190377 7.196792414845416
upperback -1.015345598830123 4.652080546824901 2.8651306603051223
thorax -9.120409045491382 1.9525385588725652 -2.9759739035620196
lowerneck -20.81212429885766 -3.2170455645951757 -1.9551661614156903
upperneck 11.904496246826366 -4.592469221799005 3.2528332279417995
head 7.242427929505954 -1.8380224255678905 0.8342487283610586
lclavicle -1.2107671360994712e-15 2.1593986735919284e-15
lhumerus -60.355766029990065 -8.677307831248205 96.6010478480768
lradius 102.609480987592
lwrist 32.74584037841749
lhand -26.351421095385632 0.2739991648574438
lfingers 7.12502
lthumb 0.20644199765117555 30.249232432963918
rclavicle -1.2107671360994712e-15 2.1593986735919284e-15
rhumerus -37.92507293867475 16.456975275179726 -101.03461101716731
rradius 116.07847412386714
rwrist -13.797277890470882
rhand -17.32569780605231 40.39655868373009
rfingers 7.12502
rthumb 8.92091253764598 10.78824533135388
67
root -0.5535397803107525 17.0503616157048 37.5665776371865 6.220184548965289 -4.430117985656128 -7.068537756733722
lfemur -37.58134546614271 -4.010189093191619 -9.602090940780085
ltibia 34.344078129881794
lfoot 2.3015241708434866 1.2794500121862535
ltoes -9.453185590416288
rfemur 10.26520731287858 4.8261994217079245 38.38270850490452
rtibia 40.50331985830273
rfoot -17.19800452176063 -6.170687419189338
rtoes -1.5805689830507093
lowerback 13.631581682599663 2.89213933614175 7.433551916748718
upperback -1.1050970055167828 5.183631254945217 2.789090875281592
thorax -8.932044320702452 2.1844735957123724 -3.2079418875218644
lowerneck -21.101819201227496 -3.350628928551917 -1.813324643930786
upperneck 11.713294103060612 -4.844752530921317 3.3258464456596672
head 7.2266884649735905 -1.933914755381105 0.8108656304906885
lclavicle -8.457532951232707e-16 2.424155199375042e-15
lhumerus -62.71783782456052 -5.90128008794362 95.08374773565606
lradius 98.53080196158832
lwrist 31.149083539357875
lhand -26.023658698967186 1.4549061996624153
lfingers 7.12502
lthumb 0.5229988631100526 31.427896154670027
rclavicle -8.457532951232707e-16 2.424155199375042e-15
rhumerus -34.75282516772309 16.767478665882045 -100.94219626326984
rradius 116.9274721446372
rwrist -13.763275863702761
rhand -17.624544597640874 40.69831661293223
rfingers 7.12502
rthumb 8.632439335987108 11.067329881397765
